<?xml version="1.0" ?>
<xmeml version="5">
  <project>
    <name>PictureBookProject</name>
    <children>
      <sequence>
        <name>Main Sequence</name>
        <duration>4108</duration>
        <rate>
          <timebase>30</timebase>
          <ntsc>FALSE</ntsc>
        </rate>
        <media>
          <video/>
          <audio>
            <track>
              <clipitem>
                <name>내레이션: 옛날 어느 마을에 심술궂은 형 놀부와</name>
                <duration>197</duration>
                <start>0</start>
                <end>197</end>
                <in>0</in>
                <out>197</out>
                <rate>
                  <timebase>30</timebase>
                  <ntsc>FALSE</ntsc>
                </rate>
                <file>
                  <name>(한글)내레이션.wav</name>
                  <pathurl>file://localhost/C:/Users/kangj/Downloads/Asset/흥부와 놀부/(한글)내레이션.wav</pathurl>
                  <media>
                    <audio>
                      <duration>197</duration>
                    </audio>
                  </media>
                </file>
              </clipitem>
              <clipitem>
                <name>놀부: 에이, 보기 싫다! 흥부 놈아, 당장</name>
                <duration>239</duration>
                <start>212</start>
                <end>451</end>
                <in>0</in>
                <out>239</out>
                <rate>
                  <timebase>30</timebase>
                  <ntsc>FALSE</ntsc>
                </rate>
                <file>
                  <name>(한글)놀부.wav</name>
                  <pathurl>file://localhost/C:/Users/kangj/Downloads/Asset/흥부와 놀부/(한글)놀부.wav</pathurl>
                  <media>
                    <audio>
                      <duration>239</duration>
                    </audio>
                  </media>
                </file>
              </clipitem>
              <clipitem>
                <name>흥부: 형님, 엄동설한에 처자식을 데리고 어</name>
                <duration>246</duration>
                <start>466</start>
                <end>713</end>
                <in>0</in>
                <out>246</out>
                <rate>
                  <timebase>30</timebase>
                  <ntsc>FALSE</ntsc>
                </rate>
                <file>
                  <name>(한글)흥부.wav</name>
                  <pathurl>file://localhost/C:/Users/kangj/Downloads/Asset/흥부와 놀부/(한글)흥부.wav</pathurl>
                  <media>
                    <audio>
                      <duration>246</duration>
                    </audio>
                  </media>
                </file>
              </clipitem>
              <clipitem>
                <name>내레이션: 결국 쫓겨난 흥부는 가난하게 살아가던</name>
                <duration>271</duration>
                <start>728</start>
                <end>1000</end>
                <in>0</in>
                <out>271</out>
                <rate>
                  <timebase>30</timebase>
                  <ntsc>FALSE</ntsc>
                </rate>
                <file>
                  <name>(한글)내레이션.wav</name>
                  <pathurl>file://localhost/C:/Users/kangj/Downloads/Asset/흥부와 놀부/(한글)내레이션.wav</pathurl>
                  <media>
                    <audio>
                      <duration>271</duration>
                    </audio>
                  </media>
                </file>
              </clipitem>
              <clipitem>
                <name>흥부: 아이고, 저런. 불쌍한 제비야. 내가</name>
                <duration>150</duration>
                <start>1015</start>
                <end>1166</end>
                <in>0</in>
                <out>150</out>
                <rate>
                  <timebase>30</timebase>
                  <ntsc>FALSE</ntsc>
                </rate>
                <file>
                  <name>(한글)흥부.wav</name>
                  <pathurl>file://localhost/C:/Users/kangj/Downloads/Asset/흥부와 놀부/(한글)흥부.wav</pathurl>
                  <media>
                    <audio>
                      <duration>150</duration>
                    </audio>
                  </media>
                </file>
              </clipitem>
              <clipitem>
                <name>내레이션: 이듬해 봄, 건강해진 제비는 흥부에게</name>
                <duration>168</duration>
                <start>1181</start>
                <end>1349</end>
                <in>0</in>
                <out>168</out>
                <rate>
                  <timebase>30</timebase>
                  <ntsc>FALSE</ntsc>
                </rate>
                <file>
                  <name>(한글)내레이션.wav</name>
                  <pathurl>file://localhost/C:/Users/kangj/Downloads/Asset/흥부와 놀부/(한글)내레이션.wav</pathurl>
                  <media>
                    <audio>
                      <duration>168</duration>
                    </audio>
                  </media>
                </file>
              </clipitem>
              <clipitem>
                <name>흥부: 제비야, 이걸 나에게 선물로 주는 거</name>
                <duration>180</duration>
                <start>1364</start>
                <end>1545</end>
                <in>0</in>
                <out>180</out>
                <rate>
                  <timebase>30</timebase>
                  <ntsc>FALSE</ntsc>
                </rate>
                <file>
                  <name>(한글)흥부.wav</name>
                  <pathurl>file://localhost/C:/Users/kangj/Downloads/Asset/흥부와 놀부/(한글)흥부.wav</pathurl>
                  <media>
                    <audio>
                      <duration>180</duration>
                    </audio>
                  </media>
                </file>
              </clipitem>
              <clipitem>
                <name>내레이션: 가을이 되자 지붕 위에 커다란 박이 </name>
                <duration>250</duration>
                <start>1560</start>
                <end>1810</end>
                <in>0</in>
                <out>250</out>
                <rate>
                  <timebase>30</timebase>
                  <ntsc>FALSE</ntsc>
                </rate>
                <file>
                  <name>(한글)내레이션.wav</name>
                  <pathurl>file://localhost/C:/Users/kangj/Downloads/Asset/흥부와 놀부/(한글)내레이션.wav</pathurl>
                  <media>
                    <audio>
                      <duration>250</duration>
                    </audio>
                  </media>
                </file>
              </clipitem>
              <clipitem>
                <name>흥부: 슬근슬근 톱질하세. 당겨 주소, 밀어</name>
                <duration>233</duration>
                <start>1825</start>
                <end>2059</end>
                <in>0</in>
                <out>233</out>
                <rate>
                  <timebase>30</timebase>
                  <ntsc>FALSE</ntsc>
                </rate>
                <file>
                  <name>(한글)흥부.wav</name>
                  <pathurl>file://localhost/C:/Users/kangj/Downloads/Asset/흥부와 놀부/(한글)흥부.wav</pathurl>
                  <media>
                    <audio>
                      <duration>233</duration>
                    </audio>
                  </media>
                </file>
              </clipitem>
              <clipitem>
                <name>내레이션: 박이 쩍 갈라지자 그 안에서는 금은보</name>
                <duration>231</duration>
                <start>2074</start>
                <end>2305</end>
                <in>0</in>
                <out>231</out>
                <rate>
                  <timebase>30</timebase>
                  <ntsc>FALSE</ntsc>
                </rate>
                <file>
                  <name>(한글)내레이션.wav</name>
                  <pathurl>file://localhost/C:/Users/kangj/Downloads/Asset/흥부와 놀부/(한글)내레이션.wav</pathurl>
                  <media>
                    <audio>
                      <duration>231</duration>
                    </audio>
                  </media>
                </file>
              </clipitem>
              <clipitem>
                <name>놀부: 뭐라? 흥부 놈이 부자가 되었다고? </name>
                <duration>231</duration>
                <start>2320</start>
                <end>2552</end>
                <in>0</in>
                <out>231</out>
                <rate>
                  <timebase>30</timebase>
                  <ntsc>FALSE</ntsc>
                </rate>
                <file>
                  <name>(한글)놀부.wav</name>
                  <pathurl>file://localhost/C:/Users/kangj/Downloads/Asset/흥부와 놀부/(한글)놀부.wav</pathurl>
                  <media>
                    <audio>
                      <duration>231</duration>
                    </audio>
                  </media>
                </file>
              </clipitem>
              <clipitem>
                <name>내레이션: 심술이 난 놀부는 멀쩡한 제비 다리를</name>
                <duration>209</duration>
                <start>2567</start>
                <end>2776</end>
                <in>0</in>
                <out>209</out>
                <rate>
                  <timebase>30</timebase>
                  <ntsc>FALSE</ntsc>
                </rate>
                <file>
                  <name>(한글)내레이션.wav</name>
                  <pathurl>file://localhost/C:/Users/kangj/Downloads/Asset/흥부와 놀부/(한글)내레이션.wav</pathurl>
                  <media>
                    <audio>
                      <duration>209</duration>
                    </audio>
                  </media>
                </file>
              </clipitem>
              <clipitem>
                <name>놀부: 흐흐흐. 이제 박을 타면 나도 금은보</name>
                <duration>221</duration>
                <start>2791</start>
                <end>3013</end>
                <in>0</in>
                <out>221</out>
                <rate>
                  <timebase>30</timebase>
                  <ntsc>FALSE</ntsc>
                </rate>
                <file>
                  <name>(한글)놀부.wav</name>
                  <pathurl>file://localhost/C:/Users/kangj/Downloads/Asset/흥부와 놀부/(한글)놀부.wav</pathurl>
                  <media>
                    <audio>
                      <duration>221</duration>
                    </audio>
                  </media>
                </file>
              </clipitem>
              <clipitem>
                <name>내레이션: 하지만 놀부의 박에서는 무서운 도깨비</name>
                <duration>219</duration>
                <start>3028</start>
                <end>3248</end>
                <in>0</in>
                <out>219</out>
                <rate>
                  <timebase>30</timebase>
                  <ntsc>FALSE</ntsc>
                </rate>
                <file>
                  <name>(한글)내레이션.wav</name>
                  <pathurl>file://localhost/C:/Users/kangj/Downloads/Asset/흥부와 놀부/(한글)내레이션.wav</pathurl>
                  <media>
                    <audio>
                      <duration>219</duration>
                    </audio>
                  </media>
                </file>
              </clipitem>
              <clipitem>
                <name>도깨비: 이놈! 마음씨 고약한 놀부 놈아! 네</name>
                <duration>233</duration>
                <start>3263</start>
                <end>3496</end>
                <in>0</in>
                <out>233</out>
                <rate>
                  <timebase>30</timebase>
                  <ntsc>FALSE</ntsc>
                </rate>
                <file>
                  <name>(한글)도개비.wav</name>
                  <pathurl>file://localhost/C:/Users/kangj/Downloads/Asset/흥부와 놀부/(한글)도개비.wav</pathurl>
                  <media>
                    <audio>
                      <duration>233</duration>
                    </audio>
                  </media>
                </file>
              </clipitem>
              <clipitem>
                <name>놀부: 아이고, 사람 살려! 잘못했습니다! </name>
                <duration>163</duration>
                <start>3511</start>
                <end>3675</end>
                <in>0</in>
                <out>163</out>
                <rate>
                  <timebase>30</timebase>
                  <ntsc>FALSE</ntsc>
                </rate>
                <file>
                  <name>(한글)놀부.wav</name>
                  <pathurl>file://localhost/C:/Users/kangj/Downloads/Asset/흥부와 놀부/(한글)놀부.wav</pathurl>
                  <media>
                    <audio>
                      <duration>163</duration>
                    </audio>
                  </media>
                </file>
              </clipitem>
              <clipitem>
                <name>흥부: 형님! 괜찮으십니까? 제 집으로 가시</name>
                <duration>173</duration>
                <start>3690</start>
                <end>3864</end>
                <in>0</in>
                <out>173</out>
                <rate>
                  <timebase>30</timebase>
                  <ntsc>FALSE</ntsc>
                </rate>
                <file>
                  <name>(한글)흥부.wav</name>
                  <pathurl>file://localhost/C:/Users/kangj/Downloads/Asset/흥부와 놀부/(한글)흥부.wav</pathurl>
                  <media>
                    <audio>
                      <duration>173</duration>
                    </audio>
                  </media>
                </file>
              </clipitem>
              <clipitem>
                <name>내레이션: 흥부의 따뜻한 마음에 감동한 놀부는 </name>
                <duration>228</duration>
                <start>3879</start>
                <end>4108</end>
                <in>0</in>
                <out>228</out>
                <rate>
                  <timebase>30</timebase>
                  <ntsc>FALSE</ntsc>
                </rate>
                <file>
                  <name>(한글)내레이션.wav</name>
                  <pathurl>file://localhost/C:/Users/kangj/Downloads/Asset/흥부와 놀부/(한글)내레이션.wav</pathurl>
                  <media>
                    <audio>
                      <duration>228</duration>
                    </audio>
                  </media>
                </file>
              </clipitem>
            </track>
          </audio>
        </media>
      </sequence>
    </children>
  </project>
</xmeml>
